<?xml version="1.0" encoding="UTF-8" standalone="no"?>
<svg
   xmlns:dc="http://purl.org/dc/elements/1.1/"
   xmlns:cc="http://creativecommons.org/ns#"
   xmlns:rdf="http://www.w3.org/1999/02/22-rdf-syntax-ns#"
   xmlns:svg="http://www.w3.org/2000/svg"
   xmlns="http://www.w3.org/2000/svg"
   viewBox="0 0 816 1056"
   height="1056"
   width="816"
   xml:space="preserve"
   id="svg2"
   version="1.1"><metadata
     id="metadata8"><rdf:RDF><cc:Work
         rdf:about=""><dc:format>image/svg+xml</dc:format><dc:type
           rdf:resource="http://purl.org/dc/dcmitype/StillImage" /></cc:Work></rdf:RDF></metadata><defs
     id="defs6"><clipPath
       id="clipPath18"
       clipPathUnits="userSpaceOnUse"><path
         style="clip-rule:evenodd"
         id="path16"
         d="M 9.12e-6,0 H 612.00001 V 792 H 9.12e-6 Z" /></clipPath><clipPath
       id="clipPath32"
       clipPathUnits="userSpaceOnUse"><path
         style="clip-rule:evenodd"
         id="path30"
         d="m 126.38,579.94 h 230.93 v 73.08 H 126.38 Z" /></clipPath><clipPath
       id="clipPath40"
       clipPathUnits="userSpaceOnUse"><path
         style="clip-rule:evenodd"
         id="path38"
         d="m 126.38,579.94 h 230.93 v 73.08 H 126.38 Z" /></clipPath><clipPath
       id="clipPath52"
       clipPathUnits="userSpaceOnUse"><path
         style="clip-rule:evenodd"
         id="path50"
         d="m 126.38,579.94 h 230.93 v 73.08 H 126.38 Z" /></clipPath></defs><g
     transform="matrix(1.3333333,0,0,-1.3333333,0,1056)"
     id="g10"><g
       id="g12"><g
         clip-path="url(#clipPath18)"
         id="g14" /></g><path
       id="path20"
       style="fill:#38d08b;fill-opacity:1;fill-rule:evenodd;stroke:none"
       d="m 90,611.4 c 0,54.68 44.32,99 99,99 54.68,0 99,-44.32 99,-99 0,-54.68 -44.32,-99 -99,-99 -54.68,0 -99,44.32 -99,99 z" /><path
       id="path22"
       style="fill:#38d08b;fill-opacity:1;fill-rule:evenodd;stroke:none"
       d="m 108,612 c 0,44.74 36.26,81 81,81 44.74,0 81,-36.26 81,-81 0,-44.74 -36.26,-81 -81,-81 -44.74,0 -81,36.26 -81,81 z" /><path
       id="path24"
       style="fill:none;stroke:#ffffff;stroke-width:2.25;stroke-linecap:butt;stroke-linejoin:miter;stroke-miterlimit:10;stroke-dasharray:none;stroke-opacity:1"
       d="m 108,612 c 0,44.74 36.26,81 81,81 44.74,0 81,-36.26 81,-81 0,-44.74 -36.26,-81 -81,-81 -44.74,0 -81,36.26 -81,81 z" /><g
       id="g26"><g
         clip-path="url(#clipPath32)"
         id="g28"><g
           id="g34"><g
             clip-path="url(#clipPath40)"
             id="g36"><text
               id="text44"
               style="font-variant:normal;font-weight:normal;font-size:72px;font-family:BritannicBold;-inkscape-font-specification:BritannicBold;writing-mode:lr-tb;fill:#ffffff;fill-opacity:1;fill-rule:nonzero;stroke:none"
               transform="matrix(1,0,0,-1,133.58,588.46)"><tspan
                 id="tspan42"
                 y="0"
                 x="0 37.296001 67.176003">TJT</tspan></text>
</g></g><g
           id="g46"><g
             clip-path="url(#clipPath52)"
             id="g48" /></g></g></g></g></svg>